# Blender v2.77 (sub 0) OBJ File: 'robot.blend'
# www.blender.org
mtllib robot2.mtl
o BONE_lfoot
v 0.080885 0.041532 -0.006379
v 0.080885 0.047701 -0.006379
v 0.087054 0.041532 -0.006379
v 0.087054 0.047701 -0.006379
v 0.080885 0.041532 -0.000211
v 0.080885 0.047701 -0.000211
v 0.087054 0.041532 -0.000211
v 0.087054 0.047701 -0.000211
vn 0.0000 0.0000 -1.0000
vn 1.0000 0.0000 0.0000
vn 0.0000 0.0000 1.0000
vn -1.0000 0.0000 0.0000
vn 0.0000 -1.0000 0.0000
vn 0.0000 1.0000 0.0000
usemtl Material.001
s off
f 4//1 3//1 1//1
f 8//2 7//2 3//2
f 6//3 5//3 7//3
f 2//4 1//4 5//4
f 3//5 7//5 5//5
f 8//6 4//6 2//6
f 2//1 4//1 1//1
f 4//2 8//2 3//2
f 8//3 6//3 7//3
f 6//4 2//4 5//4
f 1//5 3//5 5//5
f 6//6 8//6 2//6
o BONE_rfoot
v -0.082939 0.041532 -0.006379
v -0.082939 0.047701 -0.006379
v -0.076771 0.041532 -0.006379
v -0.076771 0.047701 -0.006379
v -0.082939 0.041532 -0.000211
v -0.082939 0.047701 -0.000211
v -0.076771 0.041532 -0.000211
v -0.076771 0.047701 -0.000211
vn 0.0000 0.0000 -1.0000
vn 1.0000 0.0000 0.0000
vn 0.0000 0.0000 1.0000
vn -1.0000 0.0000 0.0000
vn 0.0000 -1.0000 0.0000
vn 0.0000 1.0000 0.0000
usemtl Material.001
s off
f 12//7 11//7 9//7
f 16//8 15//8 11//8
f 14//9 13//9 15//9
f 10//10 9//10 13//10
f 11//11 15//11 13//11
f 16//12 12//12 10//12
f 10//7 12//7 9//7
f 12//8 16//8 11//8
f 16//9 14//9 15//9
f 14//10 10//10 13//10
f 9//11 11//11 13//11
f 14//12 16//12 10//12
o BONE_rlleg
v -0.082939 0.203871 -0.062224
v -0.082939 0.210040 -0.062224
v -0.076771 0.203871 -0.062224
v -0.076771 0.210040 -0.062224
v -0.082939 0.203871 -0.056055
v -0.082939 0.210040 -0.056055
v -0.076771 0.203871 -0.056055
v -0.076771 0.210040 -0.056055
vn 0.0000 0.0000 -1.0000
vn 1.0000 0.0000 0.0000
vn 0.0000 0.0000 1.0000
vn -1.0000 0.0000 0.0000
vn 0.0000 -1.0000 0.0000
vn 0.0000 1.0000 0.0000
usemtl Material.001
s off
f 20//13 19//13 17//13
f 24//14 23//14 19//14
f 22//15 21//15 23//15
f 18//16 17//16 21//16
f 19//17 23//17 21//17
f 24//18 20//18 18//18
f 18//13 20//13 17//13
f 20//14 24//14 19//14
f 24//15 22//15 23//15
f 22//16 18//16 21//16
f 17//17 19//17 21//17
f 22//18 24//18 18//18
o BONE_llleg
v 0.081997 0.203871 -0.062224
v 0.081997 0.210040 -0.062224
v 0.088165 0.203871 -0.062224
v 0.088165 0.210040 -0.062224
v 0.081997 0.203871 -0.056055
v 0.081997 0.210040 -0.056055
v 0.088165 0.203871 -0.056055
v 0.088165 0.210040 -0.056055
vn 0.0000 0.0000 -1.0000
vn 1.0000 0.0000 0.0000
vn 0.0000 0.0000 1.0000
vn -1.0000 0.0000 0.0000
vn 0.0000 -1.0000 0.0000
vn 0.0000 1.0000 0.0000
usemtl Material.001
s off
f 28//19 27//19 25//19
f 32//20 31//20 27//20
f 30//21 29//21 31//21
f 26//22 25//22 29//22
f 27//23 31//23 29//23
f 32//24 28//24 26//24
f 26//19 28//19 25//19
f 28//20 32//20 27//20
f 32//21 30//21 31//21
f 30//22 26//22 29//22
f 25//23 27//23 29//23
f 30//24 32//24 26//24
o BONE_luleg
v 0.081997 0.416860 -0.062339
v 0.081997 0.423028 -0.062339
v 0.088165 0.416860 -0.062339
v 0.088165 0.423028 -0.062339
v 0.081997 0.416860 -0.056171
v 0.081997 0.423028 -0.056171
v 0.088165 0.416860 -0.056171
v 0.088165 0.423028 -0.056171
vn 0.0000 0.0000 -1.0000
vn 1.0000 0.0000 0.0000
vn 0.0000 0.0000 1.0000
vn -1.0000 0.0000 0.0000
vn 0.0000 -1.0000 0.0000
vn 0.0000 1.0000 0.0000
usemtl Material.001
s off
f 36//25 35//25 33//25
f 40//26 39//26 35//26
f 38//27 37//27 39//27
f 34//28 33//28 37//28
f 35//29 39//29 37//29
f 40//30 36//30 34//30
f 34//25 36//25 33//25
f 36//26 40//26 35//26
f 40//27 38//27 39//27
f 38//28 34//28 37//28
f 33//29 35//29 37//29
f 38//30 40//30 34//30
o BONE_ruleg
v -0.082939 0.416860 -0.062339
v -0.082939 0.423028 -0.062339
v -0.076771 0.416860 -0.062339
v -0.076771 0.423028 -0.062339
v -0.082939 0.416860 -0.056171
v -0.082939 0.423028 -0.056171
v -0.076771 0.416860 -0.056171
v -0.076771 0.423028 -0.056171
vn 0.0000 0.0000 -1.0000
vn 1.0000 0.0000 0.0000
vn 0.0000 0.0000 1.0000
vn -1.0000 0.0000 0.0000
vn 0.0000 -1.0000 0.0000
vn 0.0000 1.0000 0.0000
usemtl Material.001
s off
f 44//31 43//31 41//31
f 48//32 47//32 43//32
f 46//33 45//33 47//33
f 42//34 41//34 45//34
f 43//35 47//35 45//35
f 48//36 44//36 42//36
f 42//31 44//31 41//31
f 44//32 48//32 43//32
f 48//33 46//33 47//33
f 46//34 42//34 45//34
f 41//35 43//35 45//35
f 46//36 48//36 42//36
o BONE_body
v -0.001121 0.603874 -0.062296
v -0.001121 0.610043 -0.062296
v 0.005048 0.603874 -0.062296
v 0.005048 0.610043 -0.062296
v -0.001121 0.603874 -0.056128
v -0.001121 0.610043 -0.056128
v 0.005048 0.603874 -0.056128
v 0.005048 0.610043 -0.056128
vn 0.0000 0.0000 -1.0000
vn 1.0000 0.0000 0.0000
vn 0.0000 0.0000 1.0000
vn -1.0000 0.0000 0.0000
vn 0.0000 -1.0000 0.0000
vn 0.0000 1.0000 0.0000
usemtl Material.001
s off
f 52//37 51//37 49//37
f 56//38 55//38 51//38
f 54//39 53//39 55//39
f 50//40 49//40 53//40
f 51//41 55//41 53//41
f 56//42 52//42 50//42
f 50//37 52//37 49//37
f 52//38 56//38 51//38
f 56//39 54//39 55//39
f 54//40 50//40 53//40
f 49//41 51//41 53//41
f 54//42 56//42 50//42
o BONE_rlarm
v -0.188135 0.703875 -0.061394
v -0.188135 0.710043 -0.061394
v -0.181966 0.703875 -0.061394
v -0.181966 0.710043 -0.061394
v -0.188135 0.703875 -0.055226
v -0.188135 0.710043 -0.055226
v -0.181966 0.703875 -0.055226
v -0.181966 0.710043 -0.055226
vn 0.0000 0.0000 -1.0000
vn 1.0000 0.0000 0.0000
vn 0.0000 0.0000 1.0000
vn -1.0000 0.0000 0.0000
vn 0.0000 -1.0000 0.0000
vn 0.0000 1.0000 0.0000
usemtl Material.001
s off
f 60//43 59//43 57//43
f 64//44 63//44 59//44
f 62//45 61//45 63//45
f 58//46 57//46 61//46
f 59//47 63//47 61//47
f 64//48 60//48 58//48
f 58//43 60//43 57//43
f 60//44 64//44 59//44
f 64//45 62//45 63//45
f 62//46 58//46 61//46
f 57//47 59//47 61//47
f 62//48 64//48 58//48
o BONE_llarm
v 0.190656 0.703875 -0.061394
v 0.190656 0.710043 -0.061394
v 0.196824 0.703875 -0.061394
v 0.196824 0.710043 -0.061394
v 0.190656 0.703875 -0.055226
v 0.190656 0.710043 -0.055226
v 0.196824 0.703875 -0.055226
v 0.196824 0.710043 -0.055226
vn 0.0000 0.0000 -1.0000
vn 1.0000 0.0000 0.0000
vn 0.0000 0.0000 1.0000
vn -1.0000 0.0000 0.0000
vn 0.0000 -1.0000 0.0000
vn 0.0000 1.0000 0.0000
usemtl Material.001
s off
f 68//49 67//49 65//49
f 72//50 71//50 67//50
f 70//51 69//51 71//51
f 66//52 65//52 69//52
f 67//53 71//53 69//53
f 72//54 68//54 66//54
f 66//49 68//49 65//49
f 68//50 72//50 67//50
f 72//51 70//51 71//51
f 70//52 66//52 69//52
f 65//53 67//53 69//53
f 70//54 72//54 66//54
o BONE_luarm
v 0.190656 0.911308 -0.061394
v 0.190656 0.917476 -0.061394
v 0.196824 0.911308 -0.061394
v 0.196824 0.917476 -0.061394
v 0.190656 0.911308 -0.055226
v 0.190656 0.917476 -0.055226
v 0.196824 0.911308 -0.055226
v 0.196824 0.917476 -0.055226
vn 0.0000 0.0000 -1.0000
vn 1.0000 0.0000 0.0000
vn 0.0000 0.0000 1.0000
vn -1.0000 0.0000 0.0000
vn 0.0000 -1.0000 0.0000
vn 0.0000 1.0000 0.0000
usemtl Material.001
s off
f 76//55 75//55 73//55
f 80//56 79//56 75//56
f 78//57 77//57 79//57
f 74//58 73//58 77//58
f 75//59 79//59 77//59
f 80//60 76//60 74//60
f 74//55 76//55 73//55
f 76//56 80//56 75//56
f 80//57 78//57 79//57
f 78//58 74//58 77//58
f 73//59 75//59 77//59
f 78//60 80//60 74//60
o BONE_ruarm
v -0.188135 0.911308 -0.061394
v -0.188135 0.917476 -0.061394
v -0.181966 0.911308 -0.061394
v -0.181966 0.917476 -0.061394
v -0.188135 0.911308 -0.055226
v -0.188135 0.917476 -0.055226
v -0.181966 0.911308 -0.055226
v -0.181966 0.917476 -0.055226
vn 0.0000 0.0000 -1.0000
vn 1.0000 0.0000 0.0000
vn 0.0000 0.0000 1.0000
vn -1.0000 0.0000 0.0000
vn 0.0000 -1.0000 0.0000
vn 0.0000 1.0000 0.0000
usemtl Material.001
s off
f 84//61 83//61 81//61
f 88//62 87//62 83//62
f 86//63 85//63 87//63
f 82//64 81//64 85//64
f 83//65 87//65 85//65
f 88//66 84//66 82//66
f 82//61 84//61 81//61
f 84//62 88//62 83//62
f 88//63 86//63 87//63
f 86//64 82//64 85//64
f 81//65 83//65 85//65
f 86//66 88//66 82//66
o BONE_head
v -0.000994 0.933855 -0.062296
v -0.000994 0.940023 -0.062296
v 0.005174 0.933855 -0.062296
v 0.005174 0.940023 -0.062296
v -0.000994 0.933855 -0.056128
v -0.000994 0.940023 -0.056128
v 0.005174 0.933855 -0.056128
v 0.005174 0.940023 -0.056128
vn 0.0000 0.0000 -1.0000
vn 1.0000 0.0000 0.0000
vn 0.0000 0.0000 1.0000
vn -1.0000 0.0000 0.0000
vn 0.0000 -1.0000 0.0000
vn 0.0000 1.0000 0.0000
usemtl Material.001
s off
f 92//67 91//67 89//67
f 96//68 95//68 91//68
f 94//69 93//69 95//69
f 90//70 89//70 93//70
f 91//71 95//71 93//71
f 96//72 92//72 90//72
f 90//67 92//67 89//67
f 92//68 96//68 91//68
f 96//69 94//69 95//69
f 94//70 90//70 93//70
f 89//71 91//71 93//71
f 94//72 96//72 90//72
o luleg
v 0.051569 0.217896 -0.115108
v 0.051569 0.421631 -0.115108
v 0.113627 0.217896 -0.115108
v 0.113627 0.421631 -0.115108
v 0.051569 0.217896 -0.003299
v 0.051569 0.421631 -0.003299
v 0.113627 0.217896 -0.003299
v 0.113627 0.421631 -0.003299
vt 0.4244 0.2222
vt 0.4244 0.1081
vt 0.5384 0.1081
vt 0.4244 0.2222
vt 0.4244 0.1081
vt 0.5384 0.1081
vt 0.4244 0.2222
vt 0.4244 0.1081
vt 0.5384 0.1081
vt 0.4244 0.2222
vt 0.4244 0.1081
vt 0.5384 0.1081
vt 0.4244 0.2222
vt 0.4244 0.1081
vt 0.5384 0.1081
vt 0.5384 0.2222
vt 0.5384 0.2222
vt 0.5384 0.2222
vt 0.5384 0.2222
vt 0.5384 0.2222
vn 0.0000 0.0000 -1.0000
vn 1.0000 0.0000 0.0000
vn 0.0000 0.0000 1.0000
vn -1.0000 0.0000 0.0000
vn 0.0000 -1.0000 0.0000
vn 0.0000 1.0000 0.0000
usemtl Material.001_robot
s off
f 100/1/73 99/2/73 97/3/73
f 104/4/74 103/5/74 99/6/74
f 102/7/75 101/8/75 103/9/75
f 98/10/76 97/11/76 101/12/76
f 99/13/77 103/5/77 101/12/77
f 104/4/78 100/14/78 98/15/78
f 98/16/73 100/1/73 97/3/73
f 100/17/74 104/4/74 99/6/74
f 104/18/75 102/7/75 103/9/75
f 102/19/76 98/10/76 101/12/76
f 97/20/77 99/13/77 101/12/77
f 102/19/78 104/4/78 98/15/78
o llleg
v 0.051569 0.004610 -0.095960
v 0.051569 0.208345 -0.095960
v 0.113627 0.004610 -0.095960
v 0.113627 0.208345 -0.095960
v 0.051569 0.004610 -0.022446
v 0.051569 0.208345 -0.022446
v 0.113627 0.004610 -0.022446
v 0.113627 0.208345 -0.022446
vt 0.4074 0.1089
vt 0.4074 0.2338
vt 0.2826 0.2338
vt 0.4074 0.1089
vt 0.4074 0.2338
vt 0.2826 0.2338
vt 0.4074 0.1089
vt 0.4074 0.2338
vt 0.2826 0.2338
vt 0.4074 0.1089
vt 0.4074 0.2338
vt 0.2826 0.2338
vt 0.4074 0.1089
vt 0.4074 0.2338
vt 0.2826 0.2338
vt 0.2826 0.1089
vt 0.2826 0.1089
vt 0.2826 0.1089
vt 0.2826 0.1089
vt 0.2826 0.1089
vn 0.0000 0.0000 -1.0000
vn 1.0000 0.0000 0.0000
vn 0.0000 0.0000 1.0000
vn -1.0000 0.0000 0.0000
vn 0.0000 -1.0000 0.0000
vn 0.0000 1.0000 0.0000
usemtl Material.001_robot
s off
f 108/21/79 107/22/79 105/23/79
f 112/24/80 111/25/80 107/26/80
f 110/27/81 109/28/81 111/29/81
f 106/30/82 105/31/82 109/32/82
f 107/33/83 111/25/83 109/32/83
f 112/24/84 108/34/84 106/35/84
f 106/36/79 108/21/79 105/23/79
f 108/37/80 112/24/80 107/26/80
f 112/38/81 110/27/81 111/29/81
f 110/39/82 106/30/82 109/32/82
f 105/40/83 107/33/83 109/32/83
f 110/39/84 112/24/84 106/35/84
o lfoot
v 0.051569 0.008809 -0.008663
v 0.051569 0.082961 -0.008663
v 0.113626 0.008809 -0.008663
v 0.113626 0.082961 -0.008663
v 0.051569 0.008809 0.103146
v 0.051569 0.082961 0.103146
v 0.113626 0.008809 0.103146
v 0.113626 0.082961 0.103146
vt 0.8869 0.2713
vt 0.8869 0.2951
vt 0.8631 0.2951
vt 0.8869 0.2713
vt 0.8869 0.2951
vt 0.8631 0.2951
vt 0.8869 0.2713
vt 0.8869 0.2951
vt 0.8631 0.2951
vt 0.8869 0.2713
vt 0.8869 0.2951
vt 0.8631 0.2951
vt 0.8869 0.2713
vt 0.8869 0.2951
vt 0.8631 0.2951
vt 0.8631 0.2713
vt 0.8631 0.2713
vt 0.8631 0.2713
vt 0.8631 0.2713
vt 0.8631 0.2713
vn 0.0000 0.0000 -1.0000
vn 1.0000 0.0000 0.0000
vn 0.0000 0.0000 1.0000
vn -1.0000 0.0000 0.0000
vn 0.0000 -1.0000 0.0000
vn 0.0000 1.0000 0.0000
usemtl Material.001_robot
s off
f 116/41/85 115/42/85 113/43/85
f 120/44/86 119/45/86 115/46/86
f 118/47/87 117/48/87 119/49/87
f 114/50/88 113/51/88 117/52/88
f 115/53/89 119/45/89 117/52/89
f 120/44/90 116/54/90 114/55/90
f 114/56/85 116/41/85 113/43/85
f 116/57/86 120/44/86 115/46/86
f 120/58/87 118/47/87 119/49/87
f 118/59/88 114/50/88 117/52/88
f 113/60/89 115/53/89 117/52/89
f 118/59/90 120/44/90 114/55/90
o rfoot
v -0.110819 0.008809 -0.008663
v -0.110819 0.082961 -0.008663
v -0.048762 0.008809 -0.008663
v -0.048762 0.082961 -0.008663
v -0.110819 0.008809 0.103146
v -0.110819 0.082961 0.103146
v -0.048762 0.008809 0.103146
v -0.048762 0.082961 0.103146
vt 0.8955 0.2657
vt 0.8955 0.3003
vt 0.8610 0.3003
vt 0.8955 0.2657
vt 0.8955 0.3003
vt 0.8610 0.3003
vt 0.8955 0.2657
vt 0.8955 0.3003
vt 0.8610 0.3003
vt 0.8955 0.2657
vt 0.8955 0.3003
vt 0.8610 0.3003
vt 0.8955 0.2657
vt 0.8955 0.3003
vt 0.8610 0.3003
vt 0.8610 0.2657
vt 0.8610 0.2657
vt 0.8610 0.2657
vt 0.8610 0.2657
vt 0.8610 0.2657
vn 0.0000 0.0000 -1.0000
vn 1.0000 0.0000 0.0000
vn 0.0000 0.0000 1.0000
vn -1.0000 0.0000 0.0000
vn 0.0000 -1.0000 0.0000
vn 0.0000 1.0000 0.0000
usemtl Material.001_robot
s off
f 124/61/91 123/62/91 121/63/91
f 128/64/92 127/65/92 123/66/92
f 126/67/93 125/68/93 127/69/93
f 122/70/94 121/71/94 125/72/94
f 123/73/95 127/65/95 125/72/95
f 128/64/96 124/74/96 122/75/96
f 122/76/91 124/61/91 121/63/91
f 124/77/92 128/64/92 123/66/92
f 128/78/93 126/67/93 127/69/93
f 126/79/94 122/70/94 125/72/94
f 121/80/95 123/73/95 125/72/95
f 126/79/96 128/64/96 122/75/96
o rlleg
v -0.110819 0.004610 -0.095960
v -0.110819 0.208345 -0.095960
v -0.048762 0.004610 -0.095960
v -0.048762 0.208345 -0.095960
v -0.110819 0.004610 -0.022446
v -0.110819 0.208345 -0.022446
v -0.048762 0.004610 -0.022446
v -0.048762 0.208345 -0.022446
vt 0.2738 0.1929
vt 0.2738 0.0754
vt 0.3914 0.0754
vt 0.2738 0.1929
vt 0.2738 0.0754
vt 0.3914 0.0754
vt 0.2738 0.1929
vt 0.2738 0.0754
vt 0.3914 0.0754
vt 0.2738 0.1929
vt 0.2738 0.0754
vt 0.3914 0.0754
vt 0.2738 0.1929
vt 0.2738 0.0754
vt 0.3914 0.0754
vt 0.3914 0.1929
vt 0.3914 0.1929
vt 0.3914 0.1929
vt 0.3914 0.1929
vt 0.3914 0.1929
vn 0.0000 0.0000 -1.0000
vn 1.0000 0.0000 0.0000
vn 0.0000 0.0000 1.0000
vn -1.0000 0.0000 0.0000
vn 0.0000 -1.0000 0.0000
vn 0.0000 1.0000 0.0000
usemtl Material.001_robot
s off
f 132/81/97 131/82/97 129/83/97
f 136/84/98 135/85/98 131/86/98
f 134/87/99 133/88/99 135/89/99
f 130/90/100 129/91/100 133/92/100
f 131/93/101 135/85/101 133/92/101
f 136/84/102 132/94/102 130/95/102
f 130/96/97 132/81/97 129/83/97
f 132/97/98 136/84/98 131/86/98
f 136/98/99 134/87/99 135/89/99
f 134/99/100 130/90/100 133/92/100
f 129/100/101 131/93/101 133/92/101
f 134/99/102 136/84/102 130/95/102
o luarm
v 0.161023 0.717241 -0.115108
v 0.161023 0.913485 -0.115108
v 0.223081 0.717241 -0.115108
v 0.223081 0.913485 -0.115108
v 0.161023 0.717241 -0.003299
v 0.161023 0.913485 -0.003299
v 0.223081 0.717241 -0.003299
v 0.223081 0.913485 -0.003299
vt 0.4946 0.2077
vt 0.4946 0.1598
vt 0.5426 0.1598
vt 0.4946 0.2077
vt 0.4946 0.1598
vt 0.5426 0.1598
vt 0.4946 0.2077
vt 0.4946 0.1598
vt 0.5426 0.1598
vt 0.4946 0.2077
vt 0.4946 0.1598
vt 0.5426 0.1598
vt 0.4946 0.2077
vt 0.4946 0.1598
vt 0.5426 0.1598
vt 0.5426 0.2077
vt 0.5426 0.2077
vt 0.5426 0.2077
vt 0.5426 0.2077
vt 0.5426 0.2077
vn 0.0000 0.0000 -1.0000
vn 1.0000 0.0000 0.0000
vn 0.0000 0.0000 1.0000
vn -1.0000 0.0000 0.0000
vn 0.0000 -1.0000 0.0000
vn 0.0000 1.0000 0.0000
usemtl Material.001_robot
s off
f 140/101/103 139/102/103 137/103/103
f 144/104/104 143/105/104 139/106/104
f 142/107/105 141/108/105 143/109/105
f 138/110/106 137/111/106 141/112/106
f 139/113/107 143/105/107 141/112/107
f 144/104/108 140/114/108 138/115/108
f 138/116/103 140/101/103 137/103/103
f 140/117/104 144/104/104 139/106/104
f 144/118/105 142/107/105 143/109/105
f 142/119/106 138/110/106 141/112/106
f 137/120/107 139/113/107 141/112/107
f 142/119/108 144/104/108 138/115/108
o llarm
v 0.161023 0.550081 -0.115108
v 0.161023 0.707394 -0.115108
v 0.223081 0.550081 -0.115108
v 0.223081 0.707394 -0.115108
v 0.161023 0.550081 -0.003299
v 0.161023 0.707394 -0.003299
v 0.223081 0.550081 -0.003299
v 0.223081 0.707394 -0.003299
vt 0.4671 0.1981
vt 0.4671 0.2686
vt 0.3965 0.2686
vt 0.4671 0.1981
vt 0.4671 0.2686
vt 0.3965 0.2686
vt 0.4671 0.1981
vt 0.4671 0.2686
vt 0.3965 0.2686
vt 0.4671 0.1981
vt 0.4671 0.2686
vt 0.3965 0.2686
vt 0.4671 0.1981
vt 0.4671 0.2686
vt 0.3965 0.2686
vt 0.3965 0.1981
vt 0.3965 0.1981
vt 0.3965 0.1981
vt 0.3965 0.1981
vt 0.3965 0.1981
vn 0.0000 0.0000 -1.0000
vn 1.0000 0.0000 0.0000
vn 0.0000 0.0000 1.0000
vn -1.0000 0.0000 0.0000
vn 0.0000 -1.0000 0.0000
vn 0.0000 1.0000 0.0000
usemtl Material.001_robot
s off
f 148/121/109 147/122/109 145/123/109
f 152/124/110 151/125/110 147/126/110
f 150/127/111 149/128/111 151/129/111
f 146/130/112 145/131/112 149/132/112
f 147/133/113 151/125/113 149/132/113
f 152/124/114 148/134/114 146/135/114
f 146/136/109 148/121/109 145/123/109
f 148/137/110 152/124/110 147/126/110
f 152/138/111 150/127/111 151/129/111
f 150/139/112 146/130/112 149/132/112
f 145/140/113 147/133/113 149/132/113
f 150/139/114 152/124/114 146/135/114
o rlarm
v -0.217075 0.550081 -0.115108
v -0.217075 0.707394 -0.115108
v -0.155017 0.550081 -0.115108
v -0.155017 0.707394 -0.115108
v -0.217075 0.550081 -0.003299
v -0.217075 0.707394 -0.003299
v -0.155017 0.550081 -0.003299
v -0.155017 0.707394 -0.003299
vt 0.2489 0.1868
vt 0.2489 0.2551
vt 0.1806 0.2551
vt 0.2489 0.1868
vt 0.2489 0.2551
vt 0.1806 0.2551
vt 0.2489 0.1868
vt 0.2489 0.2551
vt 0.1806 0.2551
vt 0.2489 0.1868
vt 0.2489 0.2551
vt 0.1806 0.2551
vt 0.2489 0.1868
vt 0.2489 0.2551
vt 0.1806 0.2551
vt 0.1806 0.1868
vt 0.1806 0.1868
vt 0.1806 0.1868
vt 0.1806 0.1868
vt 0.1806 0.1868
vn 0.0000 0.0000 -1.0000
vn 1.0000 0.0000 0.0000
vn 0.0000 0.0000 1.0000
vn -1.0000 0.0000 0.0000
vn 0.0000 -1.0000 0.0000
vn 0.0000 1.0000 0.0000
usemtl Material.001_robot
s off
f 156/141/115 155/142/115 153/143/115
f 160/144/116 159/145/116 155/146/116
f 158/147/117 157/148/117 159/149/117
f 154/150/118 153/151/118 157/152/118
f 155/153/119 159/145/119 157/152/119
f 160/144/120 156/154/120 154/155/120
f 154/156/115 156/141/115 153/143/115
f 156/157/116 160/144/116 155/146/116
f 160/158/117 158/147/117 159/149/117
f 158/159/118 154/150/118 157/152/118
f 153/160/119 155/153/119 157/152/119
f 158/159/120 160/144/120 154/155/120
o ruleg
v -0.110819 0.217896 -0.115108
v -0.110819 0.421631 -0.115108
v -0.048762 0.217896 -0.115108
v -0.048762 0.421631 -0.115108
v -0.110819 0.217896 -0.003299
v -0.110819 0.421631 -0.003299
v -0.048762 0.217896 -0.003299
v -0.048762 0.421631 -0.003299
vt 0.4168 0.2049
vt 0.4168 0.3238
vt 0.2979 0.3238
vt 0.4168 0.2049
vt 0.4168 0.3238
vt 0.2979 0.3238
vt 0.4168 0.2049
vt 0.4168 0.3238
vt 0.2979 0.3238
vt 0.4168 0.2049
vt 0.4168 0.3238
vt 0.2979 0.3238
vt 0.4168 0.2049
vt 0.4168 0.3238
vt 0.2979 0.3238
vt 0.2979 0.2049
vt 0.2979 0.2049
vt 0.2979 0.2049
vt 0.2979 0.2049
vt 0.2979 0.2049
vn 0.0000 0.0000 -1.0000
vn 1.0000 0.0000 0.0000
vn 0.0000 0.0000 1.0000
vn -1.0000 0.0000 0.0000
vn 0.0000 -1.0000 0.0000
vn 0.0000 1.0000 0.0000
usemtl Material.001_robot
s off
f 164/161/121 163/162/121 161/163/121
f 168/164/122 167/165/122 163/166/122
f 166/167/123 165/168/123 167/169/123
f 162/170/124 161/171/124 165/172/124
f 163/173/125 167/165/125 165/172/125
f 168/164/126 164/174/126 162/175/126
f 162/176/121 164/161/121 161/163/121
f 164/177/122 168/164/122 163/166/122
f 168/178/123 166/167/123 167/169/123
f 166/179/124 162/170/124 165/172/124
f 161/180/125 163/173/125 165/172/125
f 166/179/126 168/164/126 162/175/126
o ruarm
v -0.217075 0.717241 -0.115108
v -0.217075 0.913485 -0.115108
v -0.155017 0.717241 -0.115108
v -0.155017 0.913485 -0.115108
v -0.217075 0.717241 -0.003299
v -0.217075 0.913485 -0.003299
v -0.155017 0.717241 -0.003299
v -0.155017 0.913485 -0.003299
vt 0.5049 0.2656
vt 0.5049 0.3251
vt 0.4455 0.3251
vt 0.5049 0.2656
vt 0.5049 0.3251
vt 0.4455 0.3251
vt 0.5049 0.2656
vt 0.5049 0.3251
vt 0.4455 0.3251
vt 0.5049 0.2656
vt 0.5049 0.3251
vt 0.4455 0.3251
vt 0.5049 0.2656
vt 0.5049 0.3251
vt 0.4455 0.3251
vt 0.4455 0.2656
vt 0.4455 0.2656
vt 0.4455 0.2656
vt 0.4455 0.2656
vt 0.4455 0.2656
vn 0.0000 0.0000 -1.0000
vn 1.0000 0.0000 0.0000
vn 0.0000 0.0000 1.0000
vn -1.0000 0.0000 0.0000
vn 0.0000 -1.0000 0.0000
vn 0.0000 1.0000 0.0000
usemtl Material.001_robot
s off
f 172/181/127 171/182/127 169/183/127
f 176/184/128 175/185/128 171/186/128
f 174/187/129 173/188/129 175/189/129
f 170/190/130 169/191/130 173/192/130
f 171/193/131 175/185/131 173/192/131
f 176/184/132 172/194/132 170/195/132
f 170/196/127 172/181/127 169/183/127
f 172/197/128 176/184/128 171/186/128
f 176/198/129 174/187/129 175/189/129
f 174/199/130 170/190/130 173/192/130
f 169/200/131 171/193/131 173/192/131
f 174/199/132 176/184/132 170/195/132
o body
v -0.139272 0.437238 -0.123382
v -0.139272 0.921064 -0.123382
v 0.140237 0.437238 -0.123382
v 0.140237 0.921064 -0.123382
v -0.139272 0.437238 0.004976
v -0.139272 0.921064 0.004976
v 0.140237 0.437238 0.004976
v 0.140237 0.921064 0.004976
vt 0.0939 0.1416
vt 0.0939 0.1960
vt 0.0395 0.1960
vt 0.1026 0.1408
vt 0.1026 0.1968
vt 0.0466 0.1968
vt 0.5679 0.8434
vt 0.5679 0.6114
vt 0.7999 0.6114
vt 0.1026 0.1408
vt 0.1026 0.1968
vt 0.0466 0.1968
vt 0.1026 0.1408
vt 0.1026 0.1968
vt 0.0466 0.1968
vt 0.0395 0.1416
vt 0.0466 0.1408
vt 0.7999 0.8434
vt 0.0466 0.1408
vt 0.0466 0.1408
vn 0.0000 0.0000 -1.0000
vn 1.0000 0.0000 0.0000
vn 0.0000 0.0000 1.0000
vn -1.0000 0.0000 0.0000
vn 0.0000 -1.0000 0.0000
vn 0.0000 1.0000 0.0000
usemtl Material.001_robot
s off
f 180/201/133 179/202/133 177/203/133
f 184/204/134 183/205/134 179/206/134
f 182/207/135 181/208/135 183/209/135
f 178/210/136 177/211/136 181/212/136
f 179/213/137 183/205/137 181/212/137
f 184/204/138 180/214/138 178/215/138
f 178/216/133 180/201/133 177/203/133
f 180/217/134 184/204/134 179/206/134
f 184/218/135 182/207/135 183/209/135
f 182/219/136 178/210/136 181/212/136
f 177/220/137 179/213/137 181/212/137
f 182/219/138 184/204/138 178/215/138
o head
v -0.087702 0.937839 -0.115108
v -0.087702 1.181312 -0.115108
v 0.088668 0.937839 -0.115108
v 0.088668 1.181312 -0.115108
v -0.087702 0.937839 -0.003299
v -0.087702 1.181312 -0.003299
v 0.088668 0.937839 -0.003299
v 0.088668 1.181312 -0.003299
vt 0.3417 0.3237
vt 0.3417 0.2531
vt 0.4123 0.2531
vt 0.3417 0.3237
vt 0.3417 0.2531
vt 0.4123 0.2531
vt 0.1691 0.8210
vt 0.1691 0.6514
vt 0.3387 0.6514
vt 0.3417 0.3237
vt 0.3417 0.2531
vt 0.4123 0.2531
vt 0.3417 0.3237
vt 0.3417 0.2531
vt 0.4123 0.2531
vt 0.4123 0.3237
vt 0.4123 0.3237
vt 0.3387 0.8210
vt 0.4123 0.3237
vt 0.4123 0.3237
vn 0.0000 0.0000 -1.0000
vn 1.0000 0.0000 0.0000
vn 0.0000 0.0000 1.0000
vn -1.0000 0.0000 0.0000
vn 0.0000 -1.0000 0.0000
vn 0.0000 1.0000 0.0000
usemtl Material.001_robot
s off
f 188/221/139 187/222/139 185/223/139
f 192/224/140 191/225/140 187/226/140
f 190/227/141 189/228/141 191/229/141
f 186/230/142 185/231/142 189/232/142
f 187/233/143 191/225/143 189/232/143
f 192/224/144 188/234/144 186/235/144
f 186/236/139 188/221/139 185/223/139
f 188/237/140 192/224/140 187/226/140
f 192/238/141 190/227/141 191/229/141
f 190/239/142 186/230/142 189/232/142
f 185/240/143 187/233/143 189/232/143
f 190/239/144 192/224/144 186/235/144
